# xmcd
#
# Track frame offsets:
#	151
#	22456
#	39637
#	64777
#	82414
#	99452
#	118877
#	137432
#	153006
#	191664
#	209375
#
# Disc length: 2988 seconds
#
# Revision: 1
# Processed by: cddbd v1.5.2PL0 Copyright (c) Steve Scherf et al.
# Submitted via: audiograbber 1.83.01
#
DISCID=9f0baa0b
DTITLE=Van Morrison - Live at Point Depot Dublin 2000
DYEAR=2000
DGENRE=Blues
TTITLE0=Inarticulate Speech of the Heart
TTITLE1=I've Been Working
TTITLE2=Moondance
TTITLE3=Ain't That Loving You Baby
TTITLE4=Ain't Nothing You Can Do
TTITLE5=Back on Top
TTITLE6=Out of Time
TTITLE7=Precious Time
TTITLE8=All in the Game/You Know What They're Writing About
TTITLE9=Northern Music (Solid Ground)
TTITLE10=Days Like These
EXTD=
EXTT0=
EXTT1=
EXTT2=
EXTT3=
EXTT4=
EXTT5=
EXTT6=
EXTT7=
EXTT8=
EXTT9=
EXTT10=
PLAYORDER=
